<svg width="100%" height="100%" viewBox="0 0 192 192" fill="none" xmlns="http://www.w3.org/2000/svg">
<rect width="192" height="192" fill="white"/>
<path d="M56.2971 102.499V117.401C56.2971 121.272 58.4017 124.878 61.7689 126.734L88.0752 141.211C91.232 142.961 95.0201 142.961 98.1769 141.211L124.483 126.734C127.85 124.878 129.955 121.272 129.955 117.401V102.499L98.1769 119.999C95.0201 121.749 91.232 121.749 88.0752 119.999L56.2971 102.499ZM88.0752 51.2727L43.7227 75.6663C40.0924 77.6814 40.0924 82.9844 43.7227 84.9995L88.0752 109.393C91.232 111.143 95.0201 111.143 98.1769 109.393L140.477 86.1131V117.454C140.477 120.37 142.845 122.757 145.739 122.757C148.632 122.757 151 120.37 151 117.454V83.4617C151 81.4996 149.948 79.7496 148.264 78.7951L98.1769 51.2727C96.6224 50.4371 94.8878 50 93.126 50C91.3643 50 89.6297 50.4371 88.0752 51.2727V51.2727Z" fill="#651FFF"/>
</svg>
